<svg xmlns="http://www.w3.org/2000/svg" width="85.333" height="85.333" preserveAspectRatio="xMidYMid meet" version="1.0" viewBox="0 0 64 64"><metadata>Created by potrace 1.15, written by Peter Selinger 2001-2017</metadata><g fill="#000" stroke="none"><path d="M0 560 c0 -20 7 -20 320 -20 313 0 320 0 320 20 0 20 -7 20 -320 20 -313 0 -320 0 -320 -20z" transform="translate(0.000000,64.000000) scale(0.100000,-0.100000)"/><path d="M0 320 c0 -20 7 -20 320 -20 313 0 320 0 320 20 0 20 -7 20 -320 20 -313 0 -320 0 -320 -20z" transform="translate(0.000000,64.000000) scale(0.100000,-0.100000)"/><path d="M0 80 c0 -20 7 -20 320 -20 313 0 320 0 320 20 0 20 -7 20 -320 20 -313 0 -320 0 -320 -20z" transform="translate(0.000000,64.000000) scale(0.100000,-0.100000)"/></g></svg>