<svg xmlns="http://www.w3.org/2000/svg" width="85.333" height="85.333" preserveAspectRatio="xMidYMid meet" version="1.0" viewBox="0 0 64 64"><metadata>Created by potrace 1.15, written by Peter Selinger 2001-2017</metadata><g fill="#000" stroke="none"><path d="M100 309 l0 -311 23 14 c12 8 61 38 110 67 l87 52 88 -52 c48 -29 97 -59 110 -67 l22 -14 0 311 0 311 -220 0 -220 0 0 -311z m400 21 l0 -250 -90 55 -90 55 -90 -55 -90 -55 0 250 0 250 180 0 180 0 0 -250z" transform="translate(0.000000,64.000000) scale(0.100000,-0.100000)"/></g></svg>