<svg xmlns="http://www.w3.org/2000/svg" width="85.333" height="85.333" preserveAspectRatio="xMidYMid meet" version="1.0" viewBox="0 0 64 64"><metadata>Created by potrace 1.15, written by Peter Selinger 2001-2017</metadata><g fill="#000" stroke="none"><path d="M0 520 l0 -80 320 0 320 0 0 80 0 80 -320 0 -320 0 0 -80z m600 0 l0 -40 -280 0 -280 0 0 40 0 40 280 0 280 0 0 -40z" transform="translate(0.000000,64.000000) scale(0.100000,-0.100000)"/><path d="M60 210 l0 -190 260 0 260 0 0 190 c0 183 -1 190 -20 190 -19 0 -20 -7 -20 -170 l0 -170 -220 0 -220 0 0 170 c0 163 -1 170 -20 170 -19 0 -20 -7 -20 -190z" transform="translate(0.000000,64.000000) scale(0.100000,-0.100000)"/><path d="M220 290 l0 -70 100 0 100 0 0 70 0 70 -100 0 -100 0 0 -70z" transform="translate(0.000000,64.000000) scale(0.100000,-0.100000)"/></g></svg>