<svg xmlns="http://www.w3.org/2000/svg" width="85.333" height="85.333" preserveAspectRatio="xMidYMid meet" version="1.0" viewBox="0 0 64 64"><metadata>Created by potrace 1.15, written by Peter Selinger 2001-2017</metadata><g fill="#000" stroke="none"><path d="M235 507 c-71 -33 -115 -103 -115 -185 0 -64 20 -112 65 -150 34 -30 35 -34 35 -102 l0 -70 100 0 100 0 0 70 c0 69 1 71 38 105 94 84 81 243 -26 316 -42 29 -149 37 -197 16z m146 -43 c28 -8 80 -71 89 -108 13 -58 -3 -106 -49 -147 -28 -25 -41 -45 -41 -63 0 -25 -2 -26 -60 -26 -58 0 -60 1 -60 26 0 18 -13 38 -41 63 -69 62 -71 153 -6 219 46 46 93 56 168 36z" transform="translate(0.000000,64.000000) scale(0.100000,-0.100000)"/></g></svg>