<svg xmlns="http://www.w3.org/2000/svg" width="85.333" height="85.333" preserveAspectRatio="xMidYMid meet" version="1.0" viewBox="0 0 64 64"><metadata>Created by potrace 1.15, written by Peter Selinger 2001-2017</metadata><g fill="#000" stroke="none"><path d="M40 320 l0 -300 90 0 90 0 0 300 0 300 -90 0 -90 0 0 -300z m140 0 l0 -260 -50 0 -50 0 0 260 0 260 50 0 50 0 0 -260z" transform="translate(0.000000,64.000000) scale(0.100000,-0.100000)"/><path d="M420 320 l0 -300 90 0 90 0 0 300 0 300 -90 0 -90 0 0 -300z m140 0 l0 -260 -50 0 -50 0 0 260 0 260 50 0 50 0 0 -260z" transform="translate(0.000000,64.000000) scale(0.100000,-0.100000)"/></g></svg>