<svg xmlns="http://www.w3.org/2000/svg" width="85.333" height="85.333" preserveAspectRatio="xMidYMid meet" version="1.0" viewBox="0 0 64 64"><metadata>Created by potrace 1.15, written by Peter Selinger 2001-2017</metadata><g fill="#000" stroke="none"><path d="M0 290 l0 -250 320 0 320 0 0 250 0 250 -320 0 -320 0 0 -250z m600 0 l0 -210 -280 0 -280 0 0 210 0 210 280 0 280 0 0 -210z" transform="translate(0.000000,64.000000) scale(0.100000,-0.100000)"/><path d="M323 400 c-87 -52 -83 -198 6 -245 98 -50 211 16 211 123 0 85 -56 142 -140 142 -27 0 -58 -8 -77 -20z m142 -55 c19 -18 25 -35 25 -65 0 -56 -34 -90 -90 -90 -56 0 -90 34 -90 90 0 56 34 90 90 90 30 0 47 -6 65 -25z" transform="translate(0.000000,64.000000) scale(0.100000,-0.100000)"/></g></svg>