<svg xmlns="http://www.w3.org/2000/svg" width="85.333" height="85.333" preserveAspectRatio="xMidYMid meet" version="1.0" viewBox="0 0 64 64"><metadata>Created by potrace 1.15, written by Peter Selinger 2001-2017</metadata><g fill="#000" stroke="none"><path d="M240 320 l0 -280 80 0 80 0 0 280 0 280 -80 0 -80 0 0 -280z m120 0 l0 -240 -40 0 -40 0 0 240 0 240 40 0 40 0 0 -240z" transform="translate(0.000000,64.000000) scale(0.100000,-0.100000)"/><path d="M480 240 l0 -200 80 0 80 0 0 200 0 200 -80 0 -80 0 0 -200z m120 0 l0 -160 -40 0 -40 0 0 160 0 160 40 0 40 0 0 -160z" transform="translate(0.000000,64.000000) scale(0.100000,-0.100000)"/><path d="M0 160 l0 -120 80 0 80 0 0 120 0 120 -80 0 -80 0 0 -120z" transform="translate(0.000000,64.000000) scale(0.100000,-0.100000)"/></g></svg>