<svg xmlns="http://www.w3.org/2000/svg" width="85.333" height="85.333" preserveAspectRatio="xMidYMid meet" version="1.0" viewBox="0 0 64 64"><metadata>Created by potrace 1.15, written by Peter Selinger 2001-2017</metadata><g fill="#000" stroke="none"><path d="M116 624 c-14 -13 -16 -55 -16 -304 0 -249 2 -291 16 -304 23 -24 385 -24 408 0 14 13 16 55 16 304 0 249 -2 291 -16 304 -23 24 -385 24 -408 0z m372 -36 c17 -17 17 -519 0 -536 -17 -17 -319 -17 -336 0 -17 17 -17 519 0 536 17 17 319 17 336 0z" transform="translate(0.000000,64.000000) scale(0.100000,-0.100000)"/></g></svg>