<svg xmlns="http://www.w3.org/2000/svg" width="85.333" height="85.333" preserveAspectRatio="xMidYMid meet" version="1.0" viewBox="0 0 64 64"><metadata>Created by potrace 1.15, written by Peter Selinger 2001-2017</metadata><g fill="#000" stroke="none"><path d="M120 470 l0 -170 -60 0 -60 0 0 -128 c0 -185 -24 -172 321 -172 275 0 276 0 297 23 22 23 22 29 22 320 l0 297 -260 0 -260 0 0 -170z m478 -140 c-3 -228 -5 -272 -18 -280 -8 -5 -106 -10 -217 -10 l-203 0 0 280 0 280 220 0 221 0 -3 -270z m-480 -170 c-3 -104 -12 -125 -47 -112 -27 10 -31 24 -31 120 l0 92 41 0 41 0 -4 -100z" transform="translate(0.000000,64.000000) scale(0.100000,-0.100000)"/><path d="M220 470 l0 -70 80 0 80 0 0 70 0 70 -80 0 -80 0 0 -70z" transform="translate(0.000000,64.000000) scale(0.100000,-0.100000)"/><path d="M380 170 l0 -70 80 0 80 0 0 70 0 70 -80 0 -80 0 0 -70z" transform="translate(0.000000,64.000000) scale(0.100000,-0.100000)"/></g></svg>