<svg xmlns="http://www.w3.org/2000/svg" width="85.333" height="85.333" preserveAspectRatio="xMidYMid meet" version="1.0" viewBox="0 0 64 64"><metadata>Created by potrace 1.15, written by Peter Selinger 2001-2017</metadata><g fill="#000" stroke="none"><path d="M79 554 c-11 -13 3 -30 97 -125 l109 -109 -110 -110 c-104 -104 -109 -111 -92 -127 16 -17 23 -12 127 92 l110 110 110 -110 c104 -104 111 -109 127 -92 17 16 12 23 -92 127 l-110 110 110 110 c104 104 109 111 92 127 -16 17 -23 12 -127 -92 l-110 -110 -108 108 c-59 59 -110 107 -113 107 -4 0 -12 -7 -20 -16z" transform="translate(0.000000,64.000000) scale(0.100000,-0.100000)"/></g></svg>