<svg xmlns="http://www.w3.org/2000/svg" width="85.333" height="85.333" preserveAspectRatio="xMidYMid meet" version="1.0" viewBox="0 0 64 64"><metadata>Created by potrace 1.15, written by Peter Selinger 2001-2017</metadata><g fill="#000" stroke="none"><path d="M300 480 l0 -140 -140 0 c-133 0 -140 -1 -140 -20 0 -19 7 -20 140 -20 l140 0 0 -140 c0 -133 1 -140 20 -140 19 0 20 7 20 140 l0 140 140 0 c133 0 140 1 140 20 0 19 -7 20 -140 20 l-140 0 0 140 c0 133 -1 140 -20 140 -19 0 -20 -7 -20 -140z" transform="translate(0.000000,64.000000) scale(0.100000,-0.100000)"/></g></svg>